solid OpenSCAD_Model
  facet normal 1 0 0
    outer loop
      vertex -2.564999997615814 -0.9561779954233248 0
      vertex -2.564999997615814 0.9561779954233248 0
      vertex -2.564999997615814 -0.9561779954233248 0.01
    endloop
  endfacet
  facet normal -3.2887503871459004e-15 0.7808688105782365 -0.6246950461354165
    outer loop
      vertex -2.5426383732787894 -1.0249999985098839 0.01
      vertex -2.548122277110679 -1.0081222779670242 0.031097150757167666
      vertex -2.165 -0.625 0.51
    endloop
  endfacet
  facet normal 0 1 0
    outer loop
      vertex -2.5426383732787894 -1.0249999985098839 0
      vertex -2.5426383732787894 -1.0249999985098839 0.01
      vertex -1.0749999955296516 -1.0249999985098839 0.01
    endloop
  endfacet
  facet normal 0 0.7808688105782353 -0.6246950461354179
    outer loop
      vertex -2.5426383732787894 -1.0249999985098839 0.01
      vertex -2.165 -0.625 0.51
      vertex -1.0749999955296516 -1.0249999985098839 0.01
    endloop
  endfacet
  facet normal 0.7808688112593577 4.3379444405424125e-16 -0.6246950452840149
    outer loop
      vertex -2.548122277110679 -1.0081222779670242 0.031097150757167666
      vertex -2.564999997615814 -0.9561779954233248 0.01
      vertex -2.165 0.625 0.51
    endloop
  endfacet
  facet normal 0.7808688112593585 0 -0.6246950452840139
    outer loop
      vertex -2.548122277110679 -1.0081222779670242 0.031097150757167666
      vertex -2.165 0.625 0.51
      vertex -2.165 -0.625 0.51
    endloop
  endfacet
  facet normal 0 0 -1
    outer loop
      vertex -2.165 -0.625 0.51
      vertex -2.165 0.625 0.51
      vertex -2.1649999991059303 -0.625 0.51
    endloop
  endfacet
  facet normal 0 1 0
    outer loop
      vertex -2.5426383732787894 -1.0249999985098839 0
      vertex -1.0749999955296516 -1.0249999985098839 0.01
      vertex -1.0749999955296516 -1.0249999985098839 0
    endloop
  endfacet
  facet normal 0 0.7808688105782354 -0.6246950461354179
    outer loop
      vertex -2.165 -0.625 0.51
      vertex -2.1649999991059303 -0.625 0.51
      vertex -1.0749999955296516 -1.0249999985098839 0.01
    endloop
  endfacet
  facet normal 0 0.7808688105782354 -0.6246950461354179
    outer loop
      vertex -2.1649999991059303 -0.625 0.51
      vertex -0.675 -0.625 0.51
      vertex -1.0749999955296516 -1.0249999985098839 0.01
    endloop
  endfacet
  facet normal 1 0 0
    outer loop
      vertex -2.564999997615814 -0.9561779954233248 0.01
      vertex -2.564999997615814 0.9561779954233248 0
      vertex -2.564999997615814 0.9561779954233248 0.01
    endloop
  endfacet
  facet normal 0.7808688112593585 0 -0.6246950452840141
    outer loop
      vertex -2.564999997615814 -0.9561779954233248 0.01
      vertex -2.564999997615814 0.9561779954233248 0.01
      vertex -2.165 0.625 0.51
    endloop
  endfacet
  facet normal 0 0 -1
    outer loop
      vertex -2.1649999991059303 -0.625 0.51
      vertex -2.165 0.625 0.51
      vertex -2.1649999991059303 0.625 0.51
    endloop
  endfacet
  facet normal 0.7808688112593581 -6.575875555134589e-16 -0.6246950452840144
    outer loop
      vertex -2.165 0.625 0.51
      vertex -2.564999997615814 0.9561779954233248 0.01
      vertex -2.548122277110679 1.0081222779670242 0.031097150757167666
    endloop
  endfacet
  facet normal -4.0476927841795724e-15 -0.7808688105782365 -0.6246950461354165
    outer loop
      vertex -2.165 0.625 0.51
      vertex -2.548122277110679 1.0081222779670242 0.031097150757167666
      vertex -2.5426383732787894 1.0249999985098839 0.01
    endloop
  endfacet
  facet normal 0 -0.7808688105782353 -0.6246950461354179
    outer loop
      vertex -2.165 0.625 0.51
      vertex -2.5426383732787894 1.0249999985098839 0.01
      vertex -1.0749999955296516 1.0249999985098839 0.01
    endloop
  endfacet
  facet normal 0 -1 0
    outer loop
      vertex -2.5426383732787894 1.0249999985098839 0
      vertex -1.0749999955296516 1.0249999985098839 0
      vertex -2.5426383732787894 1.0249999985098839 0.01
    endloop
  endfacet
  facet normal 0 -1 0
    outer loop
      vertex -2.5426383732787894 1.0249999985098839 0.01
      vertex -1.0749999955296516 1.0249999985098839 0
      vertex -1.0749999955296516 1.0249999985098839 0.01
    endloop
  endfacet
  facet normal 0 -0.7808688105782354 -0.6246950461354179
    outer loop
      vertex -2.165 0.625 0.51
      vertex -1.0749999955296516 1.0249999985098839 0.01
      vertex -2.1649999991059303 0.625 0.51
    endloop
  endfacet
  facet normal 0 -0.7808688105782354 -0.6246950461354179
    outer loop
      vertex -2.1649999991059303 0.625 0.51
      vertex -1.0749999955296516 1.0249999985098839 0.01
      vertex -0.675 0.625 0.51
    endloop
  endfacet
  facet normal 0 1 0
    outer loop
      vertex 1.0749999955296516 -1.0249999985098839 0
      vertex 1.0749999955296516 -1.0249999985098839 0.01
      vertex 2.5426383732787894 -1.0249999985098839 0.01
    endloop
  endfacet
  facet normal 0 0.7808688105782354 -0.6246950461354179
    outer loop
      vertex 0.675 -0.625 0.51
      vertex 2.1649999991059303 -0.625 0.51
      vertex 1.0749999955296516 -1.0249999985098839 0.01
    endloop
  endfacet
  facet normal 0 0.7808688189030724 -0.6246950357293717
    outer loop
      vertex 1.0749999955296516 -1.0249999985098839 0.01
      vertex 2.1649999991059303 -0.625 0.51
      vertex 2.165 -0.625 0.51
    endloop
  endfacet
  facet normal 0 1 0
    outer loop
      vertex 1.0749999955296516 -1.0249999985098839 0
      vertex 2.5426383732787894 -1.0249999985098839 0.01
      vertex 2.5426383732787894 -1.0249999985098839 0
    endloop
  endfacet
  facet normal 0 0.7808688105782353 -0.6246950461354179
    outer loop
      vertex 1.0749999955296516 -1.0249999985098839 0.01
      vertex 2.165 -0.625 0.51
      vertex 2.5426383732787894 -1.0249999985098839 0.01
    endloop
  endfacet
  facet normal 3.2887503871459004e-15 0.7808688105782365 -0.6246950461354165
    outer loop
      vertex 2.5426383732787894 -1.0249999985098839 0.01
      vertex 2.165 -0.625 0.51
      vertex 2.548122277110679 -1.0081222779670242 0.031097150757167666
    endloop
  endfacet
  facet normal -0.7808688112593583 7.808852221722326e-16 -0.6246950452840145
    outer loop
      vertex 2.548122277110679 -1.0081222779670242 0.031097150757167666
      vertex 2.165 -0.625 0.51
      vertex 2.564999997615814 -0.9561779954233248 0.01
    endloop
  endfacet
  facet normal 0 0 -1
    outer loop
      vertex 2.165 -0.625 0.51
      vertex 2.1649999991059303 -0.625 0.51
      vertex 2.1649999991059303 0.625 0.51
    endloop
  endfacet
  facet normal -0.7808688112593585 0 -0.6246950452840141
    outer loop
      vertex 2.564999997615814 -0.9561779954233248 0.01
      vertex 2.165 -0.625 0.51
      vertex 2.165 0.625 0.51
    endloop
  endfacet
  facet normal -1 0 0
    outer loop
      vertex 2.564999997615814 -0.9561779954233248 0
      vertex 2.564999997615814 -0.9561779954233248 0.01
      vertex 2.564999997615814 0.9561779954233248 0.01
    endloop
  endfacet
  facet normal 0 -0.7808688105782353 -0.6246950461354179
    outer loop
      vertex 0.675 0.625 0.51
      vertex 1.0749999955296516 1.0249999985098839 0.01
      vertex 2.5426383732787894 1.0249999985098839 0.01
    endloop
  endfacet
  facet normal 0 -1 0
    outer loop
      vertex 1.0749999955296516 1.0249999985098839 0
      vertex 2.5426383732787894 1.0249999985098839 0
      vertex 1.0749999955296516 1.0249999985098839 0.01
    endloop
  endfacet
  facet normal 0 -0.7808688105782354 -0.6246950461354179
    outer loop
      vertex 0.675 0.625 0.51
      vertex 2.5426383732787894 1.0249999985098839 0.01
      vertex 2.1649999991059303 0.625 0.51
    endloop
  endfacet
  facet normal -0.7808688112593585 0 -0.6246950452840141
    outer loop
      vertex 2.564999997615814 -0.9561779954233248 0.01
      vertex 2.165 0.625 0.51
      vertex 2.564999997615814 0.9561779954233248 0.01
    endloop
  endfacet
  facet normal 0 0 -1
    outer loop
      vertex 2.165 -0.625 0.51
      vertex 2.1649999991059303 0.625 0.51
      vertex 2.165 0.625 0.51
    endloop
  endfacet
  facet normal 0 -1 0
    outer loop
      vertex 1.0749999955296516 1.0249999985098839 0.01
      vertex 2.5426383732787894 1.0249999985098839 0
      vertex 2.5426383732787894 1.0249999985098839 0.01
    endloop
  endfacet
  facet normal 4.0476927841795724e-15 -0.7808688105782365 -0.6246950461354165
    outer loop
      vertex 2.165 0.625 0.51
      vertex 2.5426383732787894 1.0249999985098839 0.01
      vertex 2.548122277110679 1.0081222779670242 0.031097150757167666
    endloop
  endfacet
  facet normal -0.7808688112593581 -6.575875555134589e-16 -0.6246950452840144
    outer loop
      vertex 2.165 0.625 0.51
      vertex 2.548122277110679 1.0081222779670242 0.031097150757167666
      vertex 2.564999997615814 0.9561779954233248 0.01
    endloop
  endfacet
  facet normal 0 -0.7808688105782354 -0.6246950461354179
    outer loop
      vertex 2.165 0.625 0.51
      vertex 2.1649999991059303 0.625 0.51
      vertex 2.5426383732787894 1.0249999985098839 0.01
    endloop
  endfacet
  facet normal -1 0 0
    outer loop
      vertex 2.564999997615814 -0.9561779954233248 0
      vertex 2.564999997615814 0.9561779954233248 0.01
      vertex 2.564999997615814 0.9561779954233248 0
    endloop
  endfacet
  facet normal 0.7808688128486458 -3.9606628146242045e-16 -0.624695043297405
    outer loop
      vertex -0.8497967345311054 -2.615405419811672 0.2915040793942361
      vertex -0.675 -2.4675 0.51
      vertex -0.8276193638735745 -2.6201193654655186 0.31922579302596404
    endloop
  endfacet
  facet normal -4.986745270457232e-16 0.7808688096700709 -0.6246950472706235
    outer loop
      vertex -0.8276193638735745 -2.6201193654655186 0.31922579302596404
      vertex -0.675 -2.4675 0.51
      vertex -0.28745327398604703 -2.7349352122627515 0.1757059844224921
    endloop
  endfacet
  facet normal 5.53626061222967e-10 0.7808688099831533 -0.6246950468792706
    outer loop
      vertex -0.675 -2.4675 0.51
      vertex -0.6749999970197678 -2.467500001192093 0.5099999985098836
      vertex -0.28745327398604703 -2.7349352122627515 0.1757059844224921
    endloop
  endfacet
  facet normal 0 0.7808688096700712 -0.6246950472706231
    outer loop
      vertex -0.6749999970197678 -2.467500001192093 0.5099999985098836
      vertex 0.6749999970197678 -2.467500001192093 0.5099999985098836
      vertex -0.28745327398604703 -2.7349352122627515 0.1757059844224921
    endloop
  endfacet
  facet normal 0.7808688128486456 0 -0.6246950432974052
    outer loop
      vertex -1.0749999955296516 -2.515138467990094 0.01
      vertex -1.0749999955296516 -1.0249999985098839 0.01
      vertex -0.8497967345311054 -2.615405419811672 0.2915040793942361
    endloop
  endfacet
  facet normal 1 0 0
    outer loop
      vertex -1.0749999955296516 -2.515138467990094 0
      vertex -1.0749999955296516 -1.0249999985098839 0
      vertex -1.0749999955296516 -2.515138467990094 0.01
    endloop
  endfacet
  facet normal 0 0.7808688094430303 -0.6246950475544243
    outer loop
      vertex -0.675 -2.4675 0.51
      vertex -0.6749999970197678 -2.4675 0.51
      vertex -0.6749999970197678 -2.467500001192093 0.5099999985098836
    endloop
  endfacet
  facet normal 0.7808688128486455 0 -0.6246950432974052
    outer loop
      vertex -0.8497967345311054 -2.615405419811672 0.2915040793942361
      vertex -0.675 -0.625 0.51
      vertex -0.675 -2.4675 0.51
    endloop
  endfacet
  facet normal 1 0 0
    outer loop
      vertex -1.0749999955296516 -2.515138467990094 0.01
      vertex -1.0749999955296516 -1.0249999985098839 0
      vertex -1.0749999955296516 -1.0249999985098839 0.01
    endloop
  endfacet
  facet normal 0.7808688128486456 0 -0.6246950432974051
    outer loop
      vertex -0.8497967345311054 -2.615405419811672 0.2915040793942361
      vertex -1.0749999955296516 -1.0249999985098839 0.01
      vertex -0.675 -0.625 0.51
    endloop
  endfacet
  facet normal 0 0 -1
    outer loop
      vertex -0.675 -2.4675 0.51
      vertex -0.675 -0.625 0.51
      vertex -0.6749999970197678 -2.4675 0.51
    endloop
  endfacet
  facet normal 0 0 -1
    outer loop
      vertex -0.6749999970197678 -2.4675 0.51
      vertex -0.675 -0.625 0.51
      vertex -0.6749999970197678 -0.625 0.51
    endloop
  endfacet
  facet normal 0 0 -1
    outer loop
      vertex -0.6749999970197678 0.625 0.51
      vertex -0.675 0.625 0.51
      vertex -0.675 2.4675 0.51
    endloop
  endfacet
  facet normal 1 0 0
    outer loop
      vertex -1.0749999955296516 1.0249999985098839 0
      vertex -1.0749999955296516 2.515138467990094 0
      vertex -1.0749999955296516 1.0249999985098839 0.01
    endloop
  endfacet
  facet normal 0.7808688128486456 0 -0.6246950432974051
    outer loop
      vertex -1.0749999955296516 1.0249999985098839 0.01
      vertex -0.675 2.4675 0.51
      vertex -0.675 0.625 0.51
    endloop
  endfacet
  facet normal 0 0 -1
    outer loop
      vertex -0.6749999970197678 0.625 0.51
      vertex -0.675 2.4675 0.51
      vertex -0.6749999970197678 2.4675 0.51
    endloop
  endfacet
  facet normal 1 0 0
    outer loop
      vertex -1.0749999955296516 1.0249999985098839 0.01
      vertex -1.0749999955296516 2.515138467990094 0
      vertex -1.0749999955296516 2.515138467990094 0.01
    endloop
  endfacet
  facet normal 0.7808688128486456 0 -0.6246950432974052
    outer loop
      vertex -1.0749999955296516 1.0249999985098839 0.01
      vertex -1.0749999955296516 2.515138467990094 0.01
      vertex -0.8497967345311054 2.615405419811672 0.2915040793942361
    endloop
  endfacet
  facet normal 0.7808688128486461 0 -0.6246950432974046
    outer loop
      vertex -1.0749999955296516 1.0249999985098839 0.01
      vertex -0.8497967345311054 2.615405419811672 0.2915040793942361
      vertex -0.8276193638735745 2.6201193654655186 0.31922579302596404
    endloop
  endfacet
  facet normal 0.7808688128486455 3.082983262540309e-17 -0.6246950432974053
    outer loop
      vertex -1.0749999955296516 1.0249999985098839 0.01
      vertex -0.8276193638735745 2.6201193654655186 0.31922579302596404
      vertex -0.675 2.4675 0.51
    endloop
  endfacet
  facet normal 0 -0.7808688094430303 -0.6246950475544243
    outer loop
      vertex -0.675 2.4675 0.51
      vertex -0.6749999970197678 2.467500001192093 0.5099999985098836
      vertex -0.6749999970197678 2.4675 0.51
    endloop
  endfacet
  facet normal 0 -0.7808688087789102 -0.6246950483845745
    outer loop
      vertex -0.8276193638735745 2.6201193654655186 0.31922579302596404
      vertex -0.6749999970197678 2.467500001192093 0.5099999985098836
      vertex -0.675 2.4675 0.51
    endloop
  endfacet
  facet normal 9.850323205457962e-17 -0.7808688096700722 -0.6246950472706219
    outer loop
      vertex -0.8276193638735745 2.6201193654655186 0.31922579302596404
      vertex -0.28745327398604703 2.7349352122627515 0.17570598442249202
      vertex 0.28745327398604703 2.7349352122627515 0.1757059844224921
    endloop
  endfacet
  facet normal -2.65571076575574e-16 -0.7808688096700708 -0.6246950472706235
    outer loop
      vertex -0.8276193638735745 2.6201193654655186 0.31922579302596404
      vertex 0.28745327398604703 2.7349352122627515 0.1757059844224921
      vertex -0.6749999970197678 2.467500001192093 0.5099999985098836
    endloop
  endfacet
  facet normal -9.047785600488715e-17 0.7808688096700722 -0.6246950472706219
    outer loop
      vertex -0.28745327398604703 -2.7349352122627515 0.1757059844224921
      vertex 0.8276193638735745 -2.6201193654655186 0.31922579302596404
      vertex 0.28745327398604703 -2.7349352122627515 0.17570598442249202
    endloop
  endfacet
  facet normal 2.540245080288099e-16 0.7808688096700708 -0.6246950472706236
    outer loop
      vertex -0.28745327398604703 -2.7349352122627515 0.1757059844224921
      vertex 0.6749999970197678 -2.467500001192093 0.5099999985098836
      vertex 0.8276193638735745 -2.6201193654655186 0.31922579302596404
    endloop
  endfacet
  facet normal -1.662260211464947e-10 0.780868809605202 -0.6246950473517096
    outer loop
      vertex 0.675 -2.4675 0.51
      vertex 0.8276193638735745 -2.6201193654655186 0.31922579302596404
      vertex 0.6749999970197678 -2.467500001192093 0.5099999985098836
    endloop
  endfacet
  facet normal -0.7808688128486457 7.919407346669572e-17 -0.624695043297405
    outer loop
      vertex 0.8497967345311054 -2.615405419811672 0.2915040793942361
      vertex 0.8276193638735745 -2.6201193654655186 0.31922579302596404
      vertex 1.0749999955296516 -1.0249999985098839 0.01
    endloop
  endfacet
  facet normal -0.7808688128486456 -3.082983262540309e-17 -0.6246950432974052
    outer loop
      vertex 0.675 -2.4675 0.51
      vertex 1.0749999955296516 -1.0249999985098839 0.01
      vertex 0.8276193638735745 -2.6201193654655186 0.31922579302596404
    endloop
  endfacet
  facet normal -0.7808688128486456 0 -0.6246950432974052
    outer loop
      vertex 0.8497967345311054 -2.615405419811672 0.2915040793942361
      vertex 1.0749999955296516 -1.0249999985098839 0.01
      vertex 1.0749999955296516 -2.515138467990094 0.01
    endloop
  endfacet
  facet normal -1 0 0
    outer loop
      vertex 1.0749999955296516 -2.515138467990094 0
      vertex 1.0749999955296516 -2.515138467990094 0.01
      vertex 1.0749999955296516 -1.0249999985098839 0.01
    endloop
  endfacet
  facet normal 0 0.7808688094430303 -0.6246950475544243
    outer loop
      vertex 0.675 -2.4675 0.51
      vertex 0.6749999970197678 -2.467500001192093 0.5099999985098836
      vertex 0.6749999970197678 -2.4675 0.51
    endloop
  endfacet
  facet normal -1 0 0
    outer loop
      vertex 1.0749999955296516 -2.515138467990094 0
      vertex 1.0749999955296516 -1.0249999985098839 0.01
      vertex 1.0749999955296516 -1.0249999985098839 0
    endloop
  endfacet
  facet normal 0 0 -1
    outer loop
      vertex 0.675 -2.4675 0.51
      vertex 0.6749999970197678 -2.4675 0.51
      vertex 0.6749999970197678 -0.625 0.51
    endloop
  endfacet
  facet normal -0.7808688128486456 0 -0.6246950432974052
    outer loop
      vertex 0.675 -2.4675 0.51
      vertex 0.675 -0.625 0.51
      vertex 1.0749999955296516 -1.0249999985098839 0.01
    endloop
  endfacet
  facet normal 0 0 -1
    outer loop
      vertex 0.675 -2.4675 0.51
      vertex 0.6749999970197678 -0.625 0.51
      vertex 0.675 -0.625 0.51
    endloop
  endfacet
  facet normal 0 0 -1
    outer loop
      vertex 0.6749999970197678 0.625 0.51
      vertex 0.6749999970197678 2.4675 0.51
      vertex 0.675 0.625 0.51
    endloop
  endfacet
  facet normal -1 0 0
    outer loop
      vertex 1.0749999955296516 1.0249999985098839 0
      vertex 1.0749999955296516 1.0249999985098839 0.01
      vertex 1.0749999955296516 2.515138467990094 0.01
    endloop
  endfacet
  facet normal -0.7808688128486456 0 -0.6246950432974052
    outer loop
      vertex 0.675 0.625 0.51
      vertex 0.675 2.4675 0.51
      vertex 1.0749999955296516 1.0249999985098839 0.01
    endloop
  endfacet
  facet normal 0 0 -1
    outer loop
      vertex 0.675 0.625 0.51
      vertex 0.6749999970197678 2.4675 0.51
      vertex 0.675 2.4675 0.51
    endloop
  endfacet
  facet normal -0.7808688128486461 0 -0.6246950432974046
    outer loop
      vertex 1.0749999955296516 1.0249999985098839 0.01
      vertex 0.8276193638735745 2.6201193654655186 0.31922579302596404
      vertex 0.8497967345311054 2.615405419811672 0.2915040793942361
    endloop
  endfacet
  facet normal -0.7808688128486455 3.082983262540309e-17 -0.6246950432974053
    outer loop
      vertex 1.0749999955296516 1.0249999985098839 0.01
      vertex 0.675 2.4675 0.51
      vertex 0.8276193638735745 2.6201193654655186 0.31922579302596404
    endloop
  endfacet
  facet normal -1 0 0
    outer loop
      vertex 1.0749999955296516 1.0249999985098839 0
      vertex 1.0749999955296516 2.515138467990094 0.01
      vertex 1.0749999955296516 2.515138467990094 0
    endloop
  endfacet
  facet normal -0.7808688128486456 0 -0.6246950432974052
    outer loop
      vertex 1.0749999955296516 1.0249999985098839 0.01
      vertex 0.8497967345311054 2.615405419811672 0.2915040793942361
      vertex 1.0749999955296516 2.515138467990094 0.01
    endloop
  endfacet
  facet normal 0 -0.7808688094430303 -0.6246950475544243
    outer loop
      vertex 0.675 2.4675 0.51
      vertex 0.6749999970197678 2.4675 0.51
      vertex 0.6749999970197678 2.467500001192093 0.5099999985098836
    endloop
  endfacet
  facet normal 0 -0.7808688096700712 -0.6246950472706231
    outer loop
      vertex -0.6749999970197678 2.467500001192093 0.5099999985098836
      vertex 0.28745327398604703 2.7349352122627515 0.1757059844224921
      vertex 0.6749999970197678 2.467500001192093 0.5099999985098836
    endloop
  endfacet
  facet normal 4.76993025869822e-16 -0.7808688096700708 -0.6246950472706235
    outer loop
      vertex 0.28745327398604703 2.7349352122627515 0.1757059844224921
      vertex 0.8276193638735745 2.6201193654655186 0.31922579302596404
      vertex 0.675 2.4675 0.51
    endloop
  endfacet
  facet normal 0 -0.7808688119675822 -0.6246950443987346
    outer loop
      vertex 0.28745327398604703 2.7349352122627515 0.1757059844224921
      vertex 0.675 2.4675 0.51
      vertex 0.6749999970197678 2.467500001192093 0.5099999985098836
    endloop
  endfacet
  facet normal 0 1 0
    outer loop
      vertex -2.1649999991059303 -0.625 0.51
      vertex -2.1649999991059303 -0.625 3
      vertex -0.675 -0.625 0.51
    endloop
  endfacet
  facet normal 1 0 0
    outer loop
      vertex -2.1649999991059303 -0.625 0.51
      vertex -2.1649999991059303 0.625 3
      vertex -2.1649999991059303 -0.625 3
    endloop
  endfacet
  facet normal 1 0 0
    outer loop
      vertex -0.6749999970197678 -2.467500001192093 0.5099999985098836
      vertex -0.6749999970197678 -2.4675 0.51
      vertex -0.6749999970197678 -2.467500001192093 3
    endloop
  endfacet
  facet normal 0 1 0
    outer loop
      vertex -0.6749999970197678 -2.467500001192093 0.5099999985098836
      vertex -0.6749999970197678 -2.467500001192093 3
      vertex 0.6749999970197678 -2.467500001192093 0.5099999985098836
    endloop
  endfacet
  facet normal 1 0 0
    outer loop
      vertex -0.6749999970197678 -2.4675 0.51
      vertex -0.6749999970197678 -0.625 3
      vertex -0.6749999970197678 -2.467500001192093 3
    endloop
  endfacet
  facet normal 1 0 0
    outer loop
      vertex -0.6749999970197678 -2.4675 0.51
      vertex -0.6749999970197678 -0.625 0.51
      vertex -0.6749999970197678 -0.625 3
    endloop
  endfacet
  facet normal 0 1 0
    outer loop
      vertex -0.6749999970197678 -0.625 0.51
      vertex -0.675 -0.625 0.51
      vertex -2.1649999991059303 -0.625 3
    endloop
  endfacet
  facet normal 0 1 0
    outer loop
      vertex -0.6749999970197678 -0.625 0.51
      vertex -2.1649999991059303 -0.625 3
      vertex -0.6749999970197678 -0.625 3
    endloop
  endfacet
  facet normal 1 0 0
    outer loop
      vertex -2.1649999991059303 -0.625 0.51
      vertex -2.1649999991059303 0.625 0.51
      vertex -2.1649999991059303 0.625 3
    endloop
  endfacet
  facet normal 0 -1 0
    outer loop
      vertex -2.1649999991059303 0.625 0.51
      vertex -0.6749999970197678 0.625 3
      vertex -2.1649999991059303 0.625 3
    endloop
  endfacet
  facet normal 0 -1 0
    outer loop
      vertex -2.1649999991059303 0.625 0.51
      vertex -0.675 0.625 0.51
      vertex -0.6749999970197678 0.625 3
    endloop
  endfacet
  facet normal 0 -1 0
    outer loop
      vertex -0.6749999970197678 0.625 0.51
      vertex -0.6749999970197678 0.625 3
      vertex -0.675 0.625 0.51
    endloop
  endfacet
  facet normal 1 0 0
    outer loop
      vertex -0.6749999970197678 0.625 0.51
      vertex -0.6749999970197678 2.467500001192093 3
      vertex -0.6749999970197678 0.625 3
    endloop
  endfacet
  facet normal 1 0 0
    outer loop
      vertex -0.6749999970197678 0.625 0.51
      vertex -0.6749999970197678 2.4675 0.51
      vertex -0.6749999970197678 2.467500001192093 3
    endloop
  endfacet
  facet normal 1 0 0
    outer loop
      vertex -0.6749999970197678 2.467500001192093 0.5099999985098836
      vertex -0.6749999970197678 2.467500001192093 3
      vertex -0.6749999970197678 2.4675 0.51
    endloop
  endfacet
  facet normal 0 -1 0
    outer loop
      vertex -0.6749999970197678 2.467500001192093 0.5099999985098836
      vertex 0.6749999970197678 2.467500001192093 3
      vertex -0.6749999970197678 2.467500001192093 3
    endloop
  endfacet
  facet normal -1 0 0
    outer loop
      vertex 0.6749999970197678 -2.467500001192093 0.5099999985098836
      vertex 0.6749999970197678 -2.467500001192093 3
      vertex 0.6749999970197678 -2.4675 0.51
    endloop
  endfacet
  facet normal -1 0 0
    outer loop
      vertex 0.6749999970197678 -2.4675 0.51
      vertex 0.6749999970197678 -2.467500001192093 3
      vertex 0.6749999970197678 -0.625 0.51
    endloop
  endfacet
  facet normal 0 1 0
    outer loop
      vertex 0.6749999970197678 -2.467500001192093 0.5099999985098836
      vertex -0.6749999970197678 -2.467500001192093 3
      vertex 0.6749999970197678 -2.467500001192093 3
    endloop
  endfacet
  facet normal 0 1 0
    outer loop
      vertex 0.6749999970197678 -0.625 0.51
      vertex 0.6749999970197678 -0.625 3
      vertex 0.675 -0.625 0.51
    endloop
  endfacet
  facet normal 0 1 0
    outer loop
      vertex 0.675 -0.625 0.51
      vertex 0.6749999970197678 -0.625 3
      vertex 2.1649999991059303 -0.625 0.51
    endloop
  endfacet
  facet normal -1 0 0
    outer loop
      vertex 0.6749999970197678 -0.625 0.51
      vertex 0.6749999970197678 -2.467500001192093 3
      vertex 0.6749999970197678 -0.625 3
    endloop
  endfacet
  facet normal -1 0 0
    outer loop
      vertex 2.1649999991059303 -0.625 0.51
      vertex 2.1649999991059303 -0.625 3
      vertex 2.1649999991059303 0.625 0.51
    endloop
  endfacet
  facet normal 0 1 0
    outer loop
      vertex 2.1649999991059303 -0.625 0.51
      vertex 0.6749999970197678 -0.625 3
      vertex 2.1649999991059303 -0.625 3
    endloop
  endfacet
  facet normal -1 0 0
    outer loop
      vertex 0.6749999970197678 0.625 0.51
      vertex 0.6749999970197678 0.625 3
      vertex 0.6749999970197678 2.4675 0.51
    endloop
  endfacet
  facet normal 0 -1 0
    outer loop
      vertex 0.6749999970197678 0.625 0.51
      vertex 0.675 0.625 0.51
      vertex 2.1649999991059303 0.625 3
    endloop
  endfacet
  facet normal 0 -1 0
    outer loop
      vertex 0.6749999970197678 0.625 0.51
      vertex 2.1649999991059303 0.625 3
      vertex 0.6749999970197678 0.625 3
    endloop
  endfacet
  facet normal 0 -1 0
    outer loop
      vertex -0.6749999970197678 2.467500001192093 0.5099999985098836
      vertex 0.6749999970197678 2.467500001192093 0.5099999985098836
      vertex 0.6749999970197678 2.467500001192093 3
    endloop
  endfacet
  facet normal -1 0 0
    outer loop
      vertex 0.6749999970197678 2.467500001192093 0.5099999985098836
      vertex 0.6749999970197678 2.4675 0.51
      vertex 0.6749999970197678 2.467500001192093 3
    endloop
  endfacet
  facet normal -1 0 0
    outer loop
      vertex 0.6749999970197678 2.4675 0.51
      vertex 0.6749999970197678 0.625 3
      vertex 0.6749999970197678 2.467500001192093 3
    endloop
  endfacet
  facet normal 0 -1 0
    outer loop
      vertex 0.675 0.625 0.51
      vertex 2.1649999991059303 0.625 0.51
      vertex 2.1649999991059303 0.625 3
    endloop
  endfacet
  facet normal -1 0 0
    outer loop
      vertex 2.1649999991059303 0.625 0.51
      vertex 2.1649999991059303 -0.625 3
      vertex 2.1649999991059303 0.625 3
    endloop
  endfacet
  facet normal -0.951056516295153 -0.3090169943749494 0
    outer loop
      vertex -2.512250008517152 -1.1185257684584506 0
      vertex -2.5426383732787894 -1.0249999985098839 0.01
      vertex -2.5426383732787894 -1.0249999985098839 0
    endloop
  endfacet
  facet normal -0.9510565162951534 -0.30901699437494806 0
    outer loop
      vertex -2.564999997615814 -0.9561779954233248 0
      vertex -2.564999997615814 -0.9561779954233248 0.01
      vertex -2.6899059020179656 -0.5717571497488382 0
    endloop
  endfacet
  facet normal 0 0 -1
    outer loop
      vertex -2.564999997615814 -0.9561779954233248 0
      vertex -2.6899059020179656 -0.5717571497488382 0
      vertex -2.6899059020179656 0.5717571497488382 0
    endloop
  endfacet
  facet normal -0.9510565162951533 -0.3090169943749485 -2.579739123280177e-17
    outer loop
      vertex -2.548122277110679 -1.0081222779670242 0.031097150757167666
      vertex -2.512250008517152 -1.1185257684584506 3
      vertex -2.564999997615814 -0.9561779954233248 0.01
    endloop
  endfacet
  facet normal -0.9510565162951529 -0.30901699437494934 0
    outer loop
      vertex -2.512250008517152 -1.1185257684584506 0
      vertex -2.512250008517152 -1.1185257684584506 3
      vertex -2.5426383732787894 -1.0249999985098839 0.01
    endloop
  endfacet
  facet normal -0.951056516295156 -0.30901699437494 3.244579858910423e-16
    outer loop
      vertex -2.5426383732787894 -1.0249999985098839 0.01
      vertex -2.512250008517152 -1.1185257684584506 3
      vertex -2.548122277110679 -1.0081222779670242 0.031097150757167666
    endloop
  endfacet
  facet normal -0.9510565162951533 -0.30901699437494795 0
    outer loop
      vertex -2.564999997615814 -0.9561779954233248 0.01
      vertex -2.512250008517152 -1.1185257684584506 3
      vertex -2.6899059020179656 -0.5717571497488382 0
    endloop
  endfacet
  facet normal -0.9945218953682733 -0.10452846326765322 0
    outer loop
      vertex -2.6899059020179656 -0.5717571497488382 0
      vertex -2.6899059020179656 -0.5717571497488382 3
      vertex -2.75 0 0
    endloop
  endfacet
  facet normal -0.9510565162951534 -0.30901699437494806 0
    outer loop
      vertex -2.6899059020179656 -0.5717571497488382 0
      vertex -2.512250008517152 -1.1185257684584506 3
      vertex -2.6899059020179656 -0.5717571497488382 3
    endloop
  endfacet
  facet normal -0.9945218953682733 -0.10452846326765322 0
    outer loop
      vertex -2.75 0 0
      vertex -2.6899059020179656 -0.5717571497488382 3
      vertex -2.75 0 3
    endloop
  endfacet
  facet normal -0.4067366430757996 -0.9135454576426012 -8.147371566977807e-17
    outer loop
      vertex -1.0749999955296516 -2.515138467990094 0.01
      vertex -0.8497967345311054 -2.615405419811672 3
      vertex -1.375 -2.381569860407206 0
    endloop
  endfacet
  facet normal -0.4067366430758005 -0.9135454576426009 0
    outer loop
      vertex -1.0749999955296516 -2.515138467990094 0.01
      vertex -0.8497967345311054 -2.615405419811672 0.2915040793942361
      vertex -0.8497967345311054 -2.615405419811672 3
    endloop
  endfacet
  facet normal -0.20791169081776462 -0.9781476007338045 0
    outer loop
      vertex -0.8497967345311054 -2.615405419811672 0.2915040793942361
      vertex -0.8276193638735745 -2.6201193654655186 0.31922579302596404
      vertex -0.8497967345311054 -2.615405419811672 3
    endloop
  endfacet
  facet normal -0.20791169081775923 -0.9781476007338056 0
    outer loop
      vertex -0.8276193638735745 -2.6201193654655186 0.31922579302596404
      vertex -0.28745327398604703 -2.7349352122627515 0.1757059844224921
      vertex -0.28745327398604703 -2.7349352122627515 3
    endloop
  endfacet
  facet normal -0.20791169081775945 -0.9781476007338057 4.4741433785641545e-17
    outer loop
      vertex -0.8276193638735745 -2.6201193654655186 0.31922579302596404
      vertex -0.28745327398604703 -2.7349352122627515 3
      vertex -0.8497967345311054 -2.615405419811672 3
    endloop
  endfacet
  facet normal 0 -1 0
    outer loop
      vertex -0.28745327398604703 -2.7349352122627515 0.1757059844224921
      vertex 0.28745327398604703 -2.7349352122627515 3
      vertex -0.28745327398604703 -2.7349352122627515 3
    endloop
  endfacet
  facet normal 0 0 -1
    outer loop
      vertex -2.2247967345311057 -1.616409443804301 0
      vertex -2.512250008517152 -1.1185257684584506 0
      vertex -1.0749999955296516 -1.0249999985098839 0
    endloop
  endfacet
  facet normal 0 0 -1
    outer loop
      vertex -2.2247967345311057 -1.616409443804301 0
      vertex -1.0749999955296516 -1.0249999985098839 0
      vertex -1.8401091674868602 -2.043648270062834 0
    endloop
  endfacet
  facet normal 0 0 -1
    outer loop
      vertex -1.8401091674868602 -2.043648270062834 0
      vertex -1.0749999955296516 -1.0249999985098839 0
      vertex -1.375 -2.381569860407206 0
    endloop
  endfacet
  facet normal -0.743144825477394 -0.6691306063588586 0
    outer loop
      vertex -2.2247967345311057 -1.616409443804301 0
      vertex -1.8401091674868602 -2.043648270062834 0
      vertex -1.8401091674868602 -2.043648270062834 3
    endloop
  endfacet
  facet normal -0.866025403784439 -0.49999999999999933 0
    outer loop
      vertex -2.2247967345311057 -1.616409443804301 0
      vertex -2.2247967345311057 -1.616409443804301 3
      vertex -2.512250008517152 -1.1185257684584506 0
    endloop
  endfacet
  facet normal -0.5877852522924731 -0.8090169943749473 0
    outer loop
      vertex -1.8401091674868602 -2.043648270062834 0
      vertex -1.375 -2.381569860407206 0
      vertex -1.375 -2.381569860407206 3
    endloop
  endfacet
  facet normal 0 0 -1
    outer loop
      vertex -2.512250008517152 -1.1185257684584506 0
      vertex -2.5426383732787894 -1.0249999985098839 0
      vertex -1.0749999955296516 -1.0249999985098839 0
    endloop
  endfacet
  facet normal -0.40673664307579954 -0.9135454576426012 0
    outer loop
      vertex -1.0749999955296516 -2.515138467990094 0
      vertex -1.0749999955296516 -2.515138467990094 0.01
      vertex -1.375 -2.381569860407206 0
    endloop
  endfacet
  facet normal 0 0 -1
    outer loop
      vertex -1.0749999955296516 -2.515138467990094 0
      vertex -1.375 -2.381569860407206 0
      vertex -1.0749999955296516 -1.0249999985098839 0
    endloop
  endfacet
  facet normal -0.866025403784439 -0.49999999999999933 0
    outer loop
      vertex -2.512250008517152 -1.1185257684584506 0
      vertex -2.2247967345311057 -1.616409443804301 3
      vertex -2.512250008517152 -1.1185257684584506 3
    endloop
  endfacet
  facet normal -0.743144825477394 -0.6691306063588586 0
    outer loop
      vertex -2.2247967345311057 -1.616409443804301 0
      vertex -1.8401091674868602 -2.043648270062834 3
      vertex -2.2247967345311057 -1.616409443804301 3
    endloop
  endfacet
  facet normal -0.5877852522924731 -0.8090169943749473 0
    outer loop
      vertex -1.8401091674868602 -2.043648270062834 0
      vertex -1.375 -2.381569860407206 3
      vertex -1.8401091674868602 -2.043648270062834 3
    endloop
  endfacet
  facet normal -0.4067366430758 -0.9135454576426011 0
    outer loop
      vertex -1.375 -2.381569860407206 0
      vertex -0.8497967345311054 -2.615405419811672 3
      vertex -1.375 -2.381569860407206 3
    endloop
  endfacet
  facet normal 0 0 -1
    outer loop
      vertex -2.6899059020179656 -0.5717571497488382 0
      vertex -2.75 0 0
      vertex -2.6899059020179656 0.5717571497488382 0
    endloop
  endfacet
  facet normal 0 0 -1
    outer loop
      vertex -2.564999997615814 -0.9561779954233248 0
      vertex -2.6899059020179656 0.5717571497488382 0
      vertex -2.564999997615814 0.9561779954233248 0
    endloop
  endfacet
  facet normal -0.9510565162951534 0.30901699437494806 0
    outer loop
      vertex -2.6899059020179656 0.5717571497488382 0
      vertex -2.564999997615814 0.9561779954233248 0.01
      vertex -2.564999997615814 0.9561779954233248 0
    endloop
  endfacet
  facet normal -0.951056516295153 0.3090169943749494 0
    outer loop
      vertex -2.5426383732787894 1.0249999985098839 0
      vertex -2.5426383732787894 1.0249999985098839 0.01
      vertex -2.512250008517152 1.1185257684584506 0
    endloop
  endfacet
  facet normal -0.9945218953682733 0.10452846326765322 0
    outer loop
      vertex -2.75 0 0
      vertex -2.75 0 3
      vertex -2.6899059020179656 0.5717571497488382 0
    endloop
  endfacet
  facet normal -0.9510565162951533 0.309016994374948 0
    outer loop
      vertex -2.6899059020179656 0.5717571497488382 0
      vertex -2.6899059020179656 0.5717571497488382 3
      vertex -2.564999997615814 0.9561779954233248 0.01
    endloop
  endfacet
  facet normal -0.9510565162951532 0.3090169943749485 6.057216363134184e-17
    outer loop
      vertex -2.564999997615814 0.9561779954233248 0.01
      vertex -2.6899059020179656 0.5717571497488382 3
      vertex -2.548122277110679 1.0081222779670242 0.031097150757167666
    endloop
  endfacet
  facet normal -0.9510565162951568 0.3090169943749377 -1.694098487519194e-15
    outer loop
      vertex -2.5426383732787894 1.0249999985098839 0.01
      vertex -2.548122277110679 1.0081222779670242 0.031097150757167666
      vertex -2.6899059020179656 0.5717571497488382 3
    endloop
  endfacet
  facet normal -0.9510565162951529 0.30901699437494934 0
    outer loop
      vertex -2.5426383732787894 1.0249999985098839 0.01
      vertex -2.512250008517152 1.1185257684584506 3
      vertex -2.512250008517152 1.1185257684584506 0
    endloop
  endfacet
  facet normal -0.9945218953682733 0.10452846326765322 0
    outer loop
      vertex -2.6899059020179656 0.5717571497488382 0
      vertex -2.75 0 3
      vertex -2.6899059020179656 0.5717571497488382 3
    endloop
  endfacet
  facet normal -0.9510565162951533 0.309016994374948 4.440322242885692e-17
    outer loop
      vertex -2.5426383732787894 1.0249999985098839 0.01
      vertex -2.6899059020179656 0.5717571497488382 3
      vertex -2.512250008517152 1.1185257684584506 3
    endloop
  endfacet
  facet normal 0 0 -1
    outer loop
      vertex -2.5426383732787894 1.0249999985098839 0
      vertex -2.512250008517152 1.1185257684584506 0
      vertex -2.2247967345311057 1.616409443804301 0
    endloop
  endfacet
  facet normal 0 0 -1
    outer loop
      vertex -2.5426383732787894 1.0249999985098839 0
      vertex -2.2247967345311057 1.616409443804301 0
      vertex -1.8401091674868602 2.043648270062834 0
    endloop
  endfacet
  facet normal 0 0 -1
    outer loop
      vertex -2.5426383732787894 1.0249999985098839 0
      vertex -1.8401091674868602 2.043648270062834 0
      vertex -1.375 2.381569860407206 0
    endloop
  endfacet
  facet normal 0 0 -1
    outer loop
      vertex -2.5426383732787894 1.0249999985098839 0
      vertex -1.375 2.381569860407206 0
      vertex -1.0749999955296516 1.0249999985098839 0
    endloop
  endfacet
  facet normal -0.866025403784439 0.49999999999999933 0
    outer loop
      vertex -2.512250008517152 1.1185257684584506 0
      vertex -2.512250008517152 1.1185257684584506 3
      vertex -2.2247967345311057 1.616409443804301 0
    endloop
  endfacet
  facet normal -0.743144825477394 0.6691306063588586 0
    outer loop
      vertex -2.2247967345311057 1.616409443804301 0
      vertex -2.2247967345311057 1.616409443804301 3
      vertex -1.8401091674868602 2.043648270062834 0
    endloop
  endfacet
  facet normal -0.5877852522924731 0.8090169943749473 0
    outer loop
      vertex -1.8401091674868602 2.043648270062834 0
      vertex -1.8401091674868602 2.043648270062834 3
      vertex -1.375 2.381569860407206 0
    endloop
  endfacet
  facet normal -0.40673664307579954 0.9135454576426012 0
    outer loop
      vertex -1.375 2.381569860407206 0
      vertex -1.375 2.381569860407206 3
      vertex -1.0749999955296516 2.515138467990094 0.01
    endloop
  endfacet
  facet normal 0 0 -1
    outer loop
      vertex -1.0749999955296516 1.0249999985098839 0
      vertex -1.375 2.381569860407206 0
      vertex -1.0749999955296516 2.515138467990094 0
    endloop
  endfacet
  facet normal -0.40673664307579954 0.9135454576426012 0
    outer loop
      vertex -1.375 2.381569860407206 0
      vertex -1.0749999955296516 2.515138467990094 0.01
      vertex -1.0749999955296516 2.515138467990094 0
    endloop
  endfacet
  facet normal -0.866025403784439 0.49999999999999933 0
    outer loop
      vertex -2.2247967345311057 1.616409443804301 0
      vertex -2.512250008517152 1.1185257684584506 3
      vertex -2.2247967345311057 1.616409443804301 3
    endloop
  endfacet
  facet normal -0.743144825477394 0.6691306063588586 0
    outer loop
      vertex -1.8401091674868602 2.043648270062834 0
      vertex -2.2247967345311057 1.616409443804301 3
      vertex -1.8401091674868602 2.043648270062834 3
    endloop
  endfacet
  facet normal -0.5877852522924731 0.8090169943749473 0
    outer loop
      vertex -1.375 2.381569860407206 0
      vertex -1.8401091674868602 2.043648270062834 3
      vertex -1.375 2.381569860407206 3
    endloop
  endfacet
  facet normal -0.4067366430758004 0.9135454576426008 -9.619633039550033e-17
    outer loop
      vertex -1.0749999955296516 2.515138467990094 0.01
      vertex -1.375 2.381569860407206 3
      vertex -0.8497967345311054 2.615405419811672 0.2915040793942361
    endloop
  endfacet
  facet normal -0.20791169081776462 0.9781476007338045 0
    outer loop
      vertex -0.8497967345311054 2.615405419811672 0.2915040793942361
      vertex -0.8497967345311054 2.615405419811672 3
      vertex -0.8276193638735745 2.6201193654655186 0.31922579302596404
    endloop
  endfacet
  facet normal -0.20791169081775923 0.9781476007338057 0
    outer loop
      vertex -0.8276193638735745 2.6201193654655186 0.31922579302596404
      vertex -0.28745327398604703 2.7349352122627515 3
      vertex -0.28745327398604703 2.7349352122627515 0.17570598442249202
    endloop
  endfacet
  facet normal 0 1 0
    outer loop
      vertex -0.28745327398604703 2.7349352122627515 0.17570598442249202
      vertex -0.28745327398604703 2.7349352122627515 3
      vertex 0.28745327398604703 2.7349352122627515 0.1757059844224921
    endloop
  endfacet
  facet normal -0.40673664307579993 0.9135454576426011 0
    outer loop
      vertex -0.8497967345311054 2.615405419811672 0.2915040793942361
      vertex -1.375 2.381569860407206 3
      vertex -0.8497967345311054 2.615405419811672 3
    endloop
  endfacet
  facet normal -0.20791169081775945 0.9781476007338057 4.4741433785641545e-17
    outer loop
      vertex -0.8276193638735745 2.6201193654655186 0.31922579302596404
      vertex -0.8497967345311054 2.615405419811672 3
      vertex -0.28745327398604703 2.7349352122627515 3
    endloop
  endfacet
  facet normal 0 -1 0
    outer loop
      vertex -0.28745327398604703 -2.7349352122627515 0.1757059844224921
      vertex 0.28745327398604703 -2.7349352122627515 0.17570598442249202
      vertex 0.28745327398604703 -2.7349352122627515 3
    endloop
  endfacet
  facet normal 0.20791169081775923 -0.9781476007338056 0
    outer loop
      vertex 0.28745327398604703 -2.7349352122627515 0.17570598442249202
      vertex 0.8276193638735745 -2.6201193654655186 0.31922579302596404
      vertex 0.28745327398604703 -2.7349352122627515 3
    endloop
  endfacet
  facet normal 0.20791169081776462 -0.9781476007338045 0
    outer loop
      vertex 0.8497967345311054 -2.615405419811672 0.2915040793942361
      vertex 0.8497967345311054 -2.615405419811672 3
      vertex 0.8276193638735745 -2.6201193654655186 0.31922579302596404
    endloop
  endfacet
  facet normal 0.4067366430758004 -0.9135454576426008 -1.0037877954313079e-16
    outer loop
      vertex 0.8497967345311054 -2.615405419811672 0.2915040793942361
      vertex 1.0749999955296516 -2.515138467990094 0.01
      vertex 1.375 -2.381569860407206 3
    endloop
  endfacet
  facet normal 0.20791169081775945 -0.9781476007338057 4.4741433785641545e-17
    outer loop
      vertex 0.8276193638735745 -2.6201193654655186 0.31922579302596404
      vertex 0.8497967345311054 -2.615405419811672 3
      vertex 0.28745327398604703 -2.7349352122627515 3
    endloop
  endfacet
  facet normal 0.40673664307579993 -0.9135454576426011 0
    outer loop
      vertex 0.8497967345311054 -2.615405419811672 0.2915040793942361
      vertex 1.375 -2.381569860407206 3
      vertex 0.8497967345311054 -2.615405419811672 3
    endloop
  endfacet
  facet normal 0.40673664307579954 -0.9135454576426012 0
    outer loop
      vertex 1.0749999955296516 -2.515138467990094 0
      vertex 1.375 -2.381569860407206 0
      vertex 1.0749999955296516 -2.515138467990094 0.01
    endloop
  endfacet
  facet normal 0 0 -1
    outer loop
      vertex 1.0749999955296516 -2.515138467990094 0
      vertex 1.0749999955296516 -1.0249999985098839 0
      vertex 1.375 -2.381569860407206 0
    endloop
  endfacet
  facet normal 0 0 -1
    outer loop
      vertex 1.0749999955296516 -1.0249999985098839 0
      vertex 2.5426383732787894 -1.0249999985098839 0
      vertex 1.375 -2.381569860407206 0
    endloop
  endfacet
  facet normal 0 0 -1
    outer loop
      vertex 1.375 -2.381569860407206 0
      vertex 2.5426383732787894 -1.0249999985098839 0
      vertex 1.8401091674868602 -2.043648270062834 0
    endloop
  endfacet
  facet normal 0 0 -1
    outer loop
      vertex 1.8401091674868602 -2.043648270062834 0
      vertex 2.5426383732787894 -1.0249999985098839 0
      vertex 2.2247967345311057 -1.616409443804301 0
    endloop
  endfacet
  facet normal 0 0 -1
    outer loop
      vertex 2.2247967345311057 -1.616409443804301 0
      vertex 2.5426383732787894 -1.0249999985098839 0
      vertex 2.512250008517152 -1.1185257684584506 0
    endloop
  endfacet
  facet normal 0.4067366430757996 -0.9135454576426012 0
    outer loop
      vertex 1.0749999955296516 -2.515138467990094 0.01
      vertex 1.375 -2.381569860407206 0
      vertex 1.375 -2.381569860407206 3
    endloop
  endfacet
  facet normal 0.5877852522924731 -0.8090169943749473 0
    outer loop
      vertex 1.375 -2.381569860407206 0
      vertex 1.8401091674868602 -2.043648270062834 0
      vertex 1.8401091674868602 -2.043648270062834 3
    endloop
  endfacet
  facet normal 0.743144825477394 -0.6691306063588586 0
    outer loop
      vertex 1.8401091674868602 -2.043648270062834 0
      vertex 2.2247967345311057 -1.616409443804301 0
      vertex 2.2247967345311057 -1.616409443804301 3
    endloop
  endfacet
  facet normal 0.866025403784439 -0.49999999999999933 0
    outer loop
      vertex 2.2247967345311057 -1.616409443804301 0
      vertex 2.512250008517152 -1.1185257684584506 0
      vertex 2.512250008517152 -1.1185257684584506 3
    endloop
  endfacet
  facet normal 0.5877852522924731 -0.8090169943749473 0
    outer loop
      vertex 1.375 -2.381569860407206 0
      vertex 1.8401091674868602 -2.043648270062834 3
      vertex 1.375 -2.381569860407206 3
    endloop
  endfacet
  facet normal 0.743144825477394 -0.6691306063588586 0
    outer loop
      vertex 1.8401091674868602 -2.043648270062834 0
      vertex 2.2247967345311057 -1.616409443804301 3
      vertex 1.8401091674868602 -2.043648270062834 3
    endloop
  endfacet
  facet normal 0.866025403784439 -0.49999999999999933 0
    outer loop
      vertex 2.2247967345311057 -1.616409443804301 0
      vertex 2.512250008517152 -1.1185257684584506 3
      vertex 2.2247967345311057 -1.616409443804301 3
    endloop
  endfacet
  facet normal 0.951056516295153 -0.3090169943749494 0
    outer loop
      vertex 2.512250008517152 -1.1185257684584506 0
      vertex 2.5426383732787894 -1.0249999985098839 0
      vertex 2.5426383732787894 -1.0249999985098839 0.01
    endloop
  endfacet
  facet normal 0.9510565162951534 -0.30901699437494806 0
    outer loop
      vertex 2.564999997615814 -0.9561779954233248 0
      vertex 2.6899059020179656 -0.5717571497488382 0
      vertex 2.564999997615814 -0.9561779954233248 0.01
    endloop
  endfacet
  facet normal 0 0 -1
    outer loop
      vertex 2.564999997615814 -0.9561779954233248 0
      vertex 2.564999997615814 0.9561779954233248 0
      vertex 2.6899059020179656 -0.5717571497488382 0
    endloop
  endfacet
  facet normal 0.9510565162951529 -0.30901699437494934 0
    outer loop
      vertex 2.512250008517152 -1.1185257684584506 0
      vertex 2.5426383732787894 -1.0249999985098839 0.01
      vertex 2.512250008517152 -1.1185257684584506 3
    endloop
  endfacet
  facet normal 0.9510565162951568 -0.3090169943749377 -1.694098487519194e-15
    outer loop
      vertex 2.5426383732787894 -1.0249999985098839 0.01
      vertex 2.548122277110679 -1.0081222779670242 0.031097150757167666
      vertex 2.6899059020179656 -0.5717571497488382 3
    endloop
  endfacet
  facet normal 0.9510565162951532 -0.3090169943749484 6.057216363134184e-17
    outer loop
      vertex 2.548122277110679 -1.0081222779670242 0.031097150757167666
      vertex 2.564999997615814 -0.9561779954233248 0.01
      vertex 2.6899059020179656 -0.5717571497488382 3
    endloop
  endfacet
  facet normal 0.9510565162951533 -0.30901699437494795 0
    outer loop
      vertex 2.564999997615814 -0.9561779954233248 0.01
      vertex 2.6899059020179656 -0.5717571497488382 0
      vertex 2.6899059020179656 -0.5717571497488382 3
    endloop
  endfacet
  facet normal 0.9945218953682733 -0.10452846326765322 0
    outer loop
      vertex 2.6899059020179656 -0.5717571497488382 0
      vertex 2.75 0 0
      vertex 2.75 0 3
    endloop
  endfacet
  facet normal 0.9510565162951533 -0.309016994374948 4.440322242885692e-17
    outer loop
      vertex 2.5426383732787894 -1.0249999985098839 0.01
      vertex 2.6899059020179656 -0.5717571497488382 3
      vertex 2.512250008517152 -1.1185257684584506 3
    endloop
  endfacet
  facet normal 0.9945218953682733 -0.10452846326765322 0
    outer loop
      vertex 2.6899059020179656 -0.5717571497488382 0
      vertex 2.75 0 3
      vertex 2.6899059020179656 -0.5717571497488382 3
    endloop
  endfacet
  facet normal 0 0 -1
    outer loop
      vertex 1.0749999955296516 1.0249999985098839 0
      vertex 1.0749999955296516 2.515138467990094 0
      vertex 1.375 2.381569860407206 0
    endloop
  endfacet
  facet normal 0.40673664307579954 0.9135454576426012 0
    outer loop
      vertex 1.0749999955296516 2.515138467990094 0
      vertex 1.0749999955296516 2.515138467990094 0.01
      vertex 1.375 2.381569860407206 0
    endloop
  endfacet
  facet normal 0 0 -1
    outer loop
      vertex 1.0749999955296516 1.0249999985098839 0
      vertex 2.512250008517152 1.1185257684584506 0
      vertex 2.5426383732787894 1.0249999985098839 0
    endloop
  endfacet
  facet normal 0 0 -1
    outer loop
      vertex 1.0749999955296516 1.0249999985098839 0
      vertex 1.375 2.381569860407206 0
      vertex 1.8401091674868602 2.043648270062834 0
    endloop
  endfacet
  facet normal 0 0 -1
    outer loop
      vertex 1.0749999955296516 1.0249999985098839 0
      vertex 1.8401091674868602 2.043648270062834 0
      vertex 2.2247967345311057 1.616409443804301 0
    endloop
  endfacet
  facet normal 0 0 -1
    outer loop
      vertex 1.0749999955296516 1.0249999985098839 0
      vertex 2.2247967345311057 1.616409443804301 0
      vertex 2.512250008517152 1.1185257684584506 0
    endloop
  endfacet
  facet normal 0.5877852522924731 0.8090169943749473 0
    outer loop
      vertex 1.8401091674868602 2.043648270062834 0
      vertex 1.375 2.381569860407206 0
      vertex 1.375 2.381569860407206 3
    endloop
  endfacet
  facet normal 0.866025403784439 0.49999999999999933 0
    outer loop
      vertex 2.512250008517152 1.1185257684584506 0
      vertex 2.2247967345311057 1.616409443804301 0
      vertex 2.2247967345311057 1.616409443804301 3
    endloop
  endfacet
  facet normal 0.743144825477394 0.6691306063588586 0
    outer loop
      vertex 1.8401091674868602 2.043648270062834 0
      vertex 1.8401091674868602 2.043648270062834 3
      vertex 2.2247967345311057 1.616409443804301 0
    endloop
  endfacet
  facet normal 0.4067366430758 0.9135454576426011 0
    outer loop
      vertex 1.375 2.381569860407206 0
      vertex 0.8497967345311054 2.615405419811672 3
      vertex 1.375 2.381569860407206 3
    endloop
  endfacet
  facet normal 0.5877852522924731 0.8090169943749473 0
    outer loop
      vertex 1.8401091674868602 2.043648270062834 0
      vertex 1.375 2.381569860407206 3
      vertex 1.8401091674868602 2.043648270062834 3
    endloop
  endfacet
  facet normal 0.743144825477394 0.6691306063588586 0
    outer loop
      vertex 2.2247967345311057 1.616409443804301 0
      vertex 1.8401091674868602 2.043648270062834 3
      vertex 2.2247967345311057 1.616409443804301 3
    endloop
  endfacet
  facet normal 0.866025403784439 0.49999999999999933 0
    outer loop
      vertex 2.512250008517152 1.1185257684584506 0
      vertex 2.2247967345311057 1.616409443804301 3
      vertex 2.512250008517152 1.1185257684584506 3
    endloop
  endfacet
  facet normal 0.20791169081775923 0.9781476007338056 0
    outer loop
      vertex 0.28745327398604703 2.7349352122627515 0.1757059844224921
      vertex 0.28745327398604703 2.7349352122627515 3
      vertex 0.8276193638735745 2.6201193654655186 0.31922579302596404
    endloop
  endfacet
  facet normal 0.4067366430758005 0.9135454576426009 0
    outer loop
      vertex 0.8497967345311054 2.615405419811672 0.2915040793942361
      vertex 0.8497967345311054 2.615405419811672 3
      vertex 1.0749999955296516 2.515138467990094 0.01
    endloop
  endfacet
  facet normal 0.20791169081776462 0.9781476007338045 0
    outer loop
      vertex 0.8497967345311054 2.615405419811672 0.2915040793942361
      vertex 0.8276193638735745 2.6201193654655186 0.31922579302596404
      vertex 0.8497967345311054 2.615405419811672 3
    endloop
  endfacet
  facet normal 0.4067366430757996 0.9135454576426012 -8.147371566977807e-17
    outer loop
      vertex 1.0749999955296516 2.515138467990094 0.01
      vertex 0.8497967345311054 2.615405419811672 3
      vertex 1.375 2.381569860407206 0
    endloop
  endfacet
  facet normal 0 1 0
    outer loop
      vertex 0.28745327398604703 2.7349352122627515 0.1757059844224921
      vertex -0.28745327398604703 2.7349352122627515 3
      vertex 0.28745327398604703 2.7349352122627515 3
    endloop
  endfacet
  facet normal 0.20791169081775945 0.9781476007338057 4.4741433785641545e-17
    outer loop
      vertex 0.8276193638735745 2.6201193654655186 0.31922579302596404
      vertex 0.28745327398604703 2.7349352122627515 3
      vertex 0.8497967345311054 2.615405419811672 3
    endloop
  endfacet
  facet normal 0 0 -1
    outer loop
      vertex 2.6899059020179656 -0.5717571497488382 0
      vertex 2.6899059020179656 0.5717571497488382 0
      vertex 2.75 0 0
    endloop
  endfacet
  facet normal 0 0 -1
    outer loop
      vertex 2.6899059020179656 -0.5717571497488382 0
      vertex 2.564999997615814 0.9561779954233248 0
      vertex 2.6899059020179656 0.5717571497488382 0
    endloop
  endfacet
  facet normal 0.9510565162951534 0.30901699437494806 0
    outer loop
      vertex 2.6899059020179656 0.5717571497488382 0
      vertex 2.564999997615814 0.9561779954233248 0
      vertex 2.564999997615814 0.9561779954233248 0.01
    endloop
  endfacet
  facet normal 0.951056516295153 0.3090169943749494 0
    outer loop
      vertex 2.5426383732787894 1.0249999985098839 0
      vertex 2.512250008517152 1.1185257684584506 0
      vertex 2.5426383732787894 1.0249999985098839 0.01
    endloop
  endfacet
  facet normal 0.9945218953682733 0.10452846326765322 0
    outer loop
      vertex 2.75 0 0
      vertex 2.6899059020179656 0.5717571497488382 0
      vertex 2.6899059020179656 0.5717571497488382 3
    endloop
  endfacet
  facet normal 0.9510565162951534 0.30901699437494806 0
    outer loop
      vertex 2.6899059020179656 0.5717571497488382 0
      vertex 2.564999997615814 0.9561779954233248 0.01
      vertex 2.512250008517152 1.1185257684584506 3
    endloop
  endfacet
  facet normal 0.951056516295156 0.30901699437494 3.244579858910423e-16
    outer loop
      vertex 2.5426383732787894 1.0249999985098839 0.01
      vertex 2.512250008517152 1.1185257684584506 3
      vertex 2.548122277110679 1.0081222779670242 0.031097150757167666
    endloop
  endfacet
  facet normal 0.9510565162951529 0.30901699437494934 0
    outer loop
      vertex 2.5426383732787894 1.0249999985098839 0.01
      vertex 2.512250008517152 1.1185257684584506 0
      vertex 2.512250008517152 1.1185257684584506 3
    endloop
  endfacet
  facet normal 0.9510565162951532 0.30901699437494845 -2.7155148666107116e-17
    outer loop
      vertex 2.564999997615814 0.9561779954233248 0.01
      vertex 2.548122277110679 1.0081222779670242 0.031097150757167666
      vertex 2.512250008517152 1.1185257684584506 3
    endloop
  endfacet
  facet normal 0.9945218953682733 0.10452846326765322 0
    outer loop
      vertex 2.75 0 0
      vertex 2.6899059020179656 0.5717571497488382 3
      vertex 2.75 0 3
    endloop
  endfacet
  facet normal 0.9510565162951534 0.30901699437494806 0
    outer loop
      vertex 2.6899059020179656 0.5717571497488382 0
      vertex 2.512250008517152 1.1185257684584506 3
      vertex 2.6899059020179656 0.5717571497488382 3
    endloop
  endfacet
  facet normal 0 0 -1
    outer loop
      vertex -5 -5 3
      vertex -2.512250008517152 -1.1185257684584506 3
      vertex -2.2247967345311057 -1.616409443804301 3
    endloop
  endfacet
  facet normal 0 0 -1
    outer loop
      vertex -5 -5 3
      vertex -1.8401091674868602 -2.043648270062834 3
      vertex -1.375 -2.381569860407206 3
    endloop
  endfacet
  facet normal 0 0 -1
    outer loop
      vertex -5 -5 3
      vertex -2.2247967345311057 -1.616409443804301 3
      vertex -1.8401091674868602 -2.043648270062834 3
    endloop
  endfacet
  facet normal 0 0 -1
    outer loop
      vertex -5 -5 3
      vertex -5 5 3
      vertex -2.6899059020179656 -0.5717571497488382 3
    endloop
  endfacet
  facet normal 0 0 -1
    outer loop
      vertex -5 -5 3
      vertex -2.6899059020179656 -0.5717571497488382 3
      vertex -2.512250008517152 -1.1185257684584506 3
    endloop
  endfacet
  facet normal -1 0 0
    outer loop
      vertex -5 -5 3
      vertex -5 -5 5
      vertex -5 5 5
    endloop
  endfacet
  facet normal 0 0 -1
    outer loop
      vertex -5 -5 3
      vertex -1.375 -2.381569860407206 3
      vertex -0.8497967345311054 -2.615405419811672 3
    endloop
  endfacet
  facet normal 0 0 -1
    outer loop
      vertex -5 -5 3
      vertex -0.8497967345311054 -2.615405419811672 3
      vertex -0.28745327398604703 -2.7349352122627515 3
    endloop
  endfacet
  facet normal 0 0 -1
    outer loop
      vertex -5 -5 3
      vertex -0.28745327398604703 -2.7349352122627515 3
      vertex 0.28745327398604703 -2.7349352122627515 3
    endloop
  endfacet
  facet normal 0 0 -1
    outer loop
      vertex -5 -5 3
      vertex 0.28745327398604703 -2.7349352122627515 3
      vertex 0.8497967345311054 -2.615405419811672 3
    endloop
  endfacet
  facet normal 0 -1 0
    outer loop
      vertex -5 -5 3
      vertex 5 -5 5
      vertex -5 -5 5
    endloop
  endfacet
  facet normal 0 0 -1
    outer loop
      vertex -0.6749999970197678 -2.467500001192093 3
      vertex -0.6749999970197678 -0.625 3
      vertex 0.6749999970197678 -2.467500001192093 3
    endloop
  endfacet
  facet normal 0 0 -1
    outer loop
      vertex -0.6749999970197678 -0.625 3
      vertex -2.1649999991059303 -0.625 3
      vertex -0.6749999970197678 0.625 3
    endloop
  endfacet
  facet normal 0 0 1
    outer loop
      vertex -5 -5 5
      vertex 5 -5 5
      vertex -5 5 5
    endloop
  endfacet
  facet normal -1 0 0
    outer loop
      vertex -5 -5 3
      vertex -5 5 5
      vertex -5 5 3
    endloop
  endfacet
  facet normal 0 0 -1
    outer loop
      vertex -5 5 3
      vertex -2.75 0 3
      vertex -2.6899059020179656 -0.5717571497488382 3
    endloop
  endfacet
  facet normal 0 0 -1
    outer loop
      vertex -5 5 3
      vertex -2.6899059020179656 0.5717571497488382 3
      vertex -2.75 0 3
    endloop
  endfacet
  facet normal 0 0 -1
    outer loop
      vertex -5 5 3
      vertex -2.512250008517152 1.1185257684584506 3
      vertex -2.6899059020179656 0.5717571497488382 3
    endloop
  endfacet
  facet normal 0 0 -1
    outer loop
      vertex -5 5 3
      vertex -2.2247967345311057 1.616409443804301 3
      vertex -2.512250008517152 1.1185257684584506 3
    endloop
  endfacet
  facet normal 0 0 -1
    outer loop
      vertex -5 5 3
      vertex -1.8401091674868602 2.043648270062834 3
      vertex -2.2247967345311057 1.616409443804301 3
    endloop
  endfacet
  facet normal 0 0 -1
    outer loop
      vertex -5 5 3
      vertex -1.375 2.381569860407206 3
      vertex -1.8401091674868602 2.043648270062834 3
    endloop
  endfacet
  facet normal 0 0 -1
    outer loop
      vertex -2.1649999991059303 0.625 3
      vertex -0.6749999970197678 0.625 3
      vertex -2.1649999991059303 -0.625 3
    endloop
  endfacet
  facet normal 0 0 -1
    outer loop
      vertex 0.6749999970197678 0.625 3
      vertex -0.6749999970197678 -0.625 3
      vertex -0.6749999970197678 0.625 3
    endloop
  endfacet
  facet normal 0 0 -1
    outer loop
      vertex -0.6749999970197678 0.625 3
      vertex -0.6749999970197678 2.467500001192093 3
      vertex 0.6749999970197678 0.625 3
    endloop
  endfacet
  facet normal 0 0 -1
    outer loop
      vertex -5 5 3
      vertex -0.8497967345311054 2.615405419811672 3
      vertex -1.375 2.381569860407206 3
    endloop
  endfacet
  facet normal 0 1 0
    outer loop
      vertex -5 5 3
      vertex -5 5 5
      vertex 5 5 3
    endloop
  endfacet
  facet normal 0 0 -1
    outer loop
      vertex -5 5 3
      vertex 5 5 3
      vertex -0.8497967345311054 2.615405419811672 3
    endloop
  endfacet
  facet normal 0 0 -1
    outer loop
      vertex -5 -5 3
      vertex 0.8497967345311054 -2.615405419811672 3
      vertex 5 -5 3
    endloop
  endfacet
  facet normal 0 -1 0
    outer loop
      vertex -5 -5 3
      vertex 5 -5 3
      vertex 5 -5 5
    endloop
  endfacet
  facet normal 0 0 -1
    outer loop
      vertex 5 -5 3
      vertex 0.8497967345311054 -2.615405419811672 3
      vertex 1.375 -2.381569860407206 3
    endloop
  endfacet
  facet normal 0 0 -1
    outer loop
      vertex -0.6749999970197678 -0.625 3
      vertex 0.6749999970197678 -0.625 3
      vertex 0.6749999970197678 -2.467500001192093 3
    endloop
  endfacet
  facet normal 0 0 -1
    outer loop
      vertex -0.6749999970197678 -0.625 3
      vertex 0.6749999970197678 0.625 3
      vertex 0.6749999970197678 -0.625 3
    endloop
  endfacet
  facet normal 0 0 -1
    outer loop
      vertex 2.1649999991059303 -0.625 3
      vertex 0.6749999970197678 -0.625 3
      vertex 2.1649999991059303 0.625 3
    endloop
  endfacet
  facet normal 0 0 -1
    outer loop
      vertex 5 -5 3
      vertex 1.375 -2.381569860407206 3
      vertex 1.8401091674868602 -2.043648270062834 3
    endloop
  endfacet
  facet normal 0 0 -1
    outer loop
      vertex 5 -5 3
      vertex 1.8401091674868602 -2.043648270062834 3
      vertex 2.2247967345311057 -1.616409443804301 3
    endloop
  endfacet
  facet normal 0 0 -1
    outer loop
      vertex 5 -5 3
      vertex 2.2247967345311057 -1.616409443804301 3
      vertex 2.512250008517152 -1.1185257684584506 3
    endloop
  endfacet
  facet normal 0 0 -1
    outer loop
      vertex 5 -5 3
      vertex 2.512250008517152 -1.1185257684584506 3
      vertex 2.6899059020179656 -0.5717571497488382 3
    endloop
  endfacet
  facet normal 0 0 -1
    outer loop
      vertex 5 -5 3
      vertex 2.6899059020179656 -0.5717571497488382 3
      vertex 2.75 0 3
    endloop
  endfacet
  facet normal 0 0 -1
    outer loop
      vertex 5 -5 3
      vertex 2.75 0 3
      vertex 2.6899059020179656 0.5717571497488382 3
    endloop
  endfacet
  facet normal 1 0 0
    outer loop
      vertex 5 -5 3
      vertex 5 5 3
      vertex 5 -5 5
    endloop
  endfacet
  facet normal 0 0 -1
    outer loop
      vertex 0.6749999970197678 -0.625 3
      vertex 0.6749999970197678 0.625 3
      vertex 2.1649999991059303 0.625 3
    endloop
  endfacet
  facet normal 0 0 -1
    outer loop
      vertex -0.6749999970197678 2.467500001192093 3
      vertex 0.6749999970197678 2.467500001192093 3
      vertex 0.6749999970197678 0.625 3
    endloop
  endfacet
  facet normal 0 0 1
    outer loop
      vertex -5 5 5
      vertex 5 -5 5
      vertex 5 5 5
    endloop
  endfacet
  facet normal 0 0 -1
    outer loop
      vertex 5 5 3
      vertex -0.28745327398604703 2.7349352122627515 3
      vertex -0.8497967345311054 2.615405419811672 3
    endloop
  endfacet
  facet normal 0 0 -1
    outer loop
      vertex 5 5 3
      vertex 0.28745327398604703 2.7349352122627515 3
      vertex -0.28745327398604703 2.7349352122627515 3
    endloop
  endfacet
  facet normal 0 0 -1
    outer loop
      vertex 5 5 3
      vertex 0.8497967345311054 2.615405419811672 3
      vertex 0.28745327398604703 2.7349352122627515 3
    endloop
  endfacet
  facet normal 0 0 -1
    outer loop
      vertex 5 5 3
      vertex 1.375 2.381569860407206 3
      vertex 0.8497967345311054 2.615405419811672 3
    endloop
  endfacet
  facet normal 0 1 0
    outer loop
      vertex -5 5 5
      vertex 5 5 5
      vertex 5 5 3
    endloop
  endfacet
  facet normal 0 0 -1
    outer loop
      vertex 5 5 3
      vertex 2.6899059020179656 0.5717571497488382 3
      vertex 2.512250008517152 1.1185257684584506 3
    endloop
  endfacet
  facet normal 0 0 -1
    outer loop
      vertex 5 -5 3
      vertex 2.6899059020179656 0.5717571497488382 3
      vertex 5 5 3
    endloop
  endfacet
  facet normal 1 0 0
    outer loop
      vertex 5 -5 5
      vertex 5 5 3
      vertex 5 5 5
    endloop
  endfacet
  facet normal 0 0 -1
    outer loop
      vertex 5 5 3
      vertex 2.2247967345311057 1.616409443804301 3
      vertex 1.8401091674868602 2.043648270062834 3
    endloop
  endfacet
  facet normal 0 0 -1
    outer loop
      vertex 5 5 3
      vertex 1.8401091674868602 2.043648270062834 3
      vertex 1.375 2.381569860407206 3
    endloop
  endfacet
  facet normal 0 0 -1
    outer loop
      vertex 5 5 3
      vertex 2.512250008517152 1.1185257684584506 3
      vertex 2.2247967345311057 1.616409443804301 3
    endloop
  endfacet
endsolid OpenSCAD_Model
